# xmcd
#
# Track frame offsets:
#	150
#	9712
#	21081
#	31799
#	42762
#	54579
#	65805
#	73833
#	84254
#	94486
#	104689
#	114753
#	125560
#	136159
#	146950
#	156822
#	167540
#	178539
#	187941
#	199161
#	207938
#	217381
#	228164
#	237977
#	247586
#	259262
#
# Disc length: 3573
#
# Revision: 1
# Processed by: cddbd v1.5.1PL0 Copyright (c) Steve Scherf et al.
# Submitted via: EasyCDDAExtractor 4.6.0.1
# Normalized: r0:TDELIM( - )
#
DISCID=730df31a
DTITLE=Various Artist - Explosive Doo-Wops  Vol 06
DYEAR=1900
DGENRE=Blues
TTITLE0=Royals (Richie and the) - Be My Girl
TTITLE1=Pretenders - Ding Dong Bells
TTITLE2=Preludes - Starlight
TTITLE3=Contels - Hey You
TTITLE4=Kaptions - Dreaming Of You
TTITLE5=Do-Wels (Tony Morra and the) - Looking For My Baby
TTITLE6=Chantiers - Peppermint
TTITLE7=Velvet Keys - My Baby's Gone
TTITLE8=Billy Porto and group - Ruby Ruby
TTITLE9=Rocketeers - Talk It Over Baby
TTITLE10=Regents - Liar
TTITLE11=Mello-Tones - I'm gonna Get
TTITLE12=Chestnuts (Bill Baker and the) - Tell Me Little Darling
TTITLE13=Goldbugs - Stop That Wedding
TTITLE14=Vacels (Ricky and the) - Bubble Gum
TTITLE15=Runaways - Kangaroo Hop
TTITLE16=Sentimentals - A Sunday Kind Of Love
TTITLE17=Tangents - Send Me Something
TTITLE18=Towers (Jimmy and the) - One More Chance
TTITLE19=Veltones - Fool In Love
TTITLE20=Ralph DeMarco and group - More Than Riches
TTITLE21=Richie and group - Cherie
TTITLE22=Jumpin' Tones - I Had A Dream
TTITLE23=Al Tigro and group - Yvonne
TTITLE24=Four Cheers - Fatal Charms Of Love
TTITLE25=Parktowns - That Day Will Never Come
EXTD=
EXTT0=
EXTT1=
EXTT2=
EXTT3=
EXTT4=
EXTT5=
EXTT6=
EXTT7=
EXTT8=
EXTT9=
EXTT10=
EXTT11=
EXTT12=
EXTT13=
EXTT14=
EXTT15=
EXTT16=
EXTT17=
EXTT18=
EXTT19=
EXTT20=
EXTT21=
EXTT22=
EXTT23=
EXTT24=
EXTT25=
PLAYORDER=
